<?xml version="1.0" encoding="utf-8"?>
<!-- Generator: Adobe Illustrator 27.5.0, SVG Export Plug-In . SVG Version: 6.00 Build 0)  -->
<svg version="1.1" id="Layer_1" xmlns="http://www.w3.org/2000/svg" xmlns:xlink="http://www.w3.org/1999/xlink" x="0px" y="0px"
	 viewBox="0 0 595.28 841.89" style="enable-background:new 0 0 595.28 841.89;" xml:space="preserve">
<style type="text/css">
	.st0{fill:#3977BC;}
	.st1{opacity:0.05;fill:#D1D3D4;}
	.st2{opacity:0.07;fill:#F1F2F2;}
	.st3{opacity:0.09;fill:#D1D3D4;}
	.st4{fill:#676654;stroke:#594A42;stroke-miterlimit:10;}
	.st5{fill:#F1F2F2;stroke:#686755;stroke-miterlimit:10;}
	.st6{opacity:0.39;fill:#262262;}
</style>
<rect x="-0.19" y="0.06" class="st0" width="595.28" height="841.89"/>
<g id="sjena_mora">
	<polyline id="more_sjene" class="st1" points="-0.21,362.23 594.93,362.23 595.11,278.74 -0.21,303.17 	"/>
	<polyline class="st2" points="-0.05,249.23 595.09,244.27 595.09,231.25 -0.19,204 	"/>
	<polyline class="st3" points="-0.05,535.33 594.79,501.63 594.79,583.58 -0.21,572.1 	"/>
</g>
<g id="grebeni">
	<path class="st4" d="M36.83,110.19c0,0,136.17,1.03,136.17,0l-2.07-2.77c0-0.53-0.51-0.94-1.02-0.79c-1.96,0.55-6.52,1-11.88-4.14
		c-7.15-6.87,1.36-7.86,1.36-10.94s7.67-4.99-2.38-8.55c-10.73-3.8-19.45-3.32-34.38,6.84c-24.75,16.84-75.91,9.23-82.04,10.26
		C31.05,101.69,36.83,110.19,36.83,110.19z"/>
	<path class="st4" d="M175.05,110.19c29.91,0.18,63-0.37,57.87,0c0.26-3.39-10.05-3.84-11.22-7.62c-1.76-5.64-3.07-9.7-3.07-9.7
		s-6.51,1.53-8.55,3.69s-3.56-6.71-7.66-7.04c-4.9-0.39-1.8-5.06-11.37,2.67C181.55,99.86,173.04,107.89,175.05,110.19z"/>
	<path class="st4" d="M239.69,110.06l356.36,0.12c0.06-1.61,0.28-28.01,0-27.15c-1.91,5.84,7.17-4.07-11.81-6.51
		c-20.66-2.66-13.79,2.23-19.74,2.04c-7.94-0.25-14.34-11.48-24.51-5.11c-25.53,16-13.44-2.14-24.55,1.75
		c-11.28,3.95-30.94-1.07-44.22,5.06c-13.28,6.13-10.3,4.27-17.06,6.65c-6.33,2.23-18.11-2.15-26.17,0.84
		c-3.44,1.28,0.67,7.38-15.35,8.04c-14.5,0.59,3.09-9.89-6.1-8.87c-9.19,1.02-8.54,1.04-19.78-3.89
		c-10.35-4.54-14.59-7.85-20.39-9.24c-7.16-1.71-16.49,3.39-20.46,2.43c-9.4-2.26-4.54,7.47-9.19,6.8
		c-14.92-2.14-10.12-9.31-24.13-6.85c-15.88,2.79-40.03,21.94-39.15,22.73C265.69,96.74,228.68,110.62,239.69,110.06z"/>
	<path class="st4" d="M241.73,114.27"/>
</g>
<g id="jedrilice_00000013186131397375979350000012390263964690624169_">
	<path class="st5" d="M595.09,668.78l0.14,5.62c0,0-13.71,0.26-14.99-2.04c-1.28-2.3-2.21-4.26-2.21-4.26h17.06l0.18-5.1
		c0,0-19.03-69.37-19.03-74.99c0,0-2.13-0.68-2,0s-0.83,17.2-0.83,17.2s-7.3,42.46,4.45,58.2l4.01,4.68"/>
	<g id="jedrilice">
		<polygon class="st5" points="289.94,755.16 289.94,748.52 313.43,748.52 344.58,749.03 344.58,758.23 		"/>
		<path class="st5" d="M302.2,647.42c2.55,81.19,11.23,101.11,11.23,101.11h31.15L302.2,647.42z"/>
		<path class="st5" d="M297.59,630.57c0,0-19.7,60.26-0.14,107.23H310l-7.81-90.38L297.59,630.57z"/>
		<path class="st5" d="M366.79,690.06c2.3,4.85,4.09,4.85,4.09,4.85l12.26,1.79l5.11-3.06l2.55-5.87l-7.66,1.53L366.79,690.06z"/>
		<path class="st5" d="M381.86,684.18c-8.94,4.34-11.74,2.3-11.74,2.3l11.74-4.09V684.18z"/>
		<path class="st5" d="M371.13,604.27"/>
		<path class="st5" d="M368.7,678.57l-3.44,0c-1.59-0.34-3.32-87.45,3.57-99.7l3.13,24.77l10.53,83.32l-10.72,0.8
			c-1.66-1.28-1.66-1.28-1.66-1.28c-0.27-0.14-3.94-22.11-4.09-22.72c-1.55-6.69,2.24-52.97,5.94-60.12"/>
		<line class="st5" x1="381.86" y1="685.33" x2="391.41" y2="687.4"/>
		<line class="st5" x1="371.13" y1="687.27" x2="366.15" y2="690.06"/>
		<path class="st5" d="M439.67,686.96c-0.31-0.89-1.01-1.1-0.77-0.91c0.72,0.55,3.21,4.64,3.21,4.64
			c22.34,4.34,23.36,4.21,23.36,4.21c0.89,0.08,1.38-5.82,1.4-4.85c0.04,1.4,0.32-7.01,0.06-4.72c-0.26,2.24-1.08,1.97-1.84,2.07
			c-0.77,0.1-18.38,1.26-18.38,1.26S439.93,687.7,439.67,686.96z"/>
		<path class="st5" d="M451.56,684.19l-12.66,1.86L451.56,684.19z"/>
		<path class="st5" d="M462.54,683.67c3.57-0.51,4.5,1.01,4.5,1.01"/>
		<path class="st5" d="M432.79,576.44l30.77,110.83c0,0-7.4,0.67-8.81,0.13c-1.4-0.54-3.45-1.28-3.19-3.21
			c0.01-0.05-0.49-2.98-1.33-7.83c-0.04-0.24-0.08-0.49-0.13-0.74C445.69,650.1,432.79,576.44,432.79,576.44z"/>
		<path class="st5" d="M432.79,576.44c-2.07-1.68,4.97,93.99,11.62,97.28c2.45,1.21,5.69,1.9,5.69,1.9"/>
		<path class="st5" d="M155.88,338.99l-29.68,1.02c0,0,0.34,1.11,0.43,1.62c0.09,0.51,3.23,2.47,3.32,2.81
			c0.09,0.34,24.85,0.51,24.85,0.51l0.51-4.68c0,0,0.86-0.77,0.65-1.15c-0.07-0.13-0.26-0.21-0.65-0.21c-0.02,0-0.22-0.88-0.56-2.43
			c-2.61-12.04-13.49-64.72-13.49-64.72s-12.34,61.53-13.96,59.91l-1.45,0.26v1.02l18.21,0.77l0.09,2.98c0,0,10.51,2.1,10.7,0.26"/>
		<line class="st5" x1="141.19" y1="272.62" x2="144.07" y2="333.71"/>
		<path class="st5" d="M126.2,340.01c0,0,15.57-4.77,17.96-3.32"/>
		<path class="st5" d="M574.24,614.23"/>
	</g>
</g>
<polygon class="st6" points="-0.21,110.64 596.05,110.19 596.59,142.4 -0.05,174.57 "/>
</svg>
